# xmcd
#
# Track frame offsets: 
#        150
#        16280
#        30629
#        41721
#        53968
#        68842
#        79118
#        92684
#        108035
#        119556
#        134618
#
# Disc length: 2055 seconds
#
# Revision: 0
# Processed by: cddbd v1.5.2PL0 Copyright (c) Steve Scherf et al.
# Submitted via: ExactAudioCopy v1.3
#
DISCID=9008050b
DTITLE=Bob Frank - True Stories and Outrageous Lies
DYEAR=2018
DGENRE=Blues
TTITLE0=Low Down Dirty Ways
TTITLE1=Married Woman Blues
TTITLE2=Chinese Knock-Off
TTITLE3=People Don't Change
TTITLE4=Come on Baby and Ride With Me
TTITLE5=Blues On 9 - 11
TTITLE6=I'm so Damn Lazy
TTITLE7=High Maintenance Woman
TTITLE8=Stavin' Chain
TTITLE9=Dead Man's Curve
TTITLE10=Lucky so Far
EXTD=
EXTT0=
EXTT1=
EXTT2=
EXTT3=
EXTT4=
EXTT5=
EXTT6=
EXTT7=
EXTT8=
EXTT9=
EXTT10=
PLAYORDER=
